<?xml version="1.0" encoding="UTF-8" standalone="no"?>
<!DOCTYPE svg PUBLIC "-//W3C//DTD SVG 1.1//EN"
 "http://www.w3.org/Graphics/SVG/1.1/DTD/svg11.dtd">
<!-- Generated by graphviz version 2.40.1 (20161225.0304)
 -->
<!-- Title: dependency&#45;cruiser output Pages: 1 -->
<svg width="236pt" height="233pt"
 viewBox="0.00 0.00 236.00 233.00" xmlns="http://www.w3.org/2000/svg" xmlns:xlink="http://www.w3.org/1999/xlink">
<g id="graph0" class="graph" transform="scale(1 1) rotate(0) translate(4 229)">
<title>dependency&#45;cruiser output</title>
<polygon fill="#ffffff" stroke="transparent" points="-4,4 -4,-229 232,-229 232,4 -4,4"/>
<g id="clust1" class="cluster">
<title>cluster_COMPONENTS</title>
<path fill="#ffffff" stroke="#000000" stroke-width="2" d="M146,-67C146,-67 208,-67 208,-67 214,-67 220,-73 220,-79 220,-79 220,-139 220,-139 220,-145 214,-151 208,-151 208,-151 146,-151 146,-151 140,-151 134,-145 134,-139 134,-139 134,-79 134,-79 134,-73 140,-67 146,-67"/>
<text text-anchor="middle" x="177" y="-139.8" font-family="Helvetica,sans-Serif" font-weight="bold" font-size="9.00" fill="#000000">COMPONENTS</text>
</g>
<g id="clust2" class="cluster">
<title>cluster_COMPONENTS/views</title>
<path fill="#ffffff" stroke="#000000" stroke-width="2" d="M154,-75C154,-75 200,-75 200,-75 206,-75 212,-81 212,-87 212,-87 212,-114 212,-114 212,-120 206,-126 200,-126 200,-126 154,-126 154,-126 148,-126 142,-120 142,-114 142,-114 142,-87 142,-87 142,-81 148,-75 154,-75"/>
<text text-anchor="middle" x="177" y="-114.8" font-family="Helvetica,sans-Serif" font-weight="bold" font-size="9.00" fill="#000000">views</text>
</g>
<g id="clust3" class="cluster">
<title>cluster_STYLES</title>
<path fill="#ffffff" stroke="#000000" stroke-width="2" d="M152.9961,-8C152.9961,-8 201.0039,-8 201.0039,-8 207.0039,-8 213.0039,-14 213.0039,-20 213.0039,-20 213.0039,-47 213.0039,-47 213.0039,-53 207.0039,-59 201.0039,-59 201.0039,-59 152.9961,-59 152.9961,-59 146.9961,-59 140.9961,-53 140.9961,-47 140.9961,-47 140.9961,-20 140.9961,-20 140.9961,-14 146.9961,-8 152.9961,-8"/>
<text text-anchor="middle" x="177" y="-47.8" font-family="Helvetica,sans-Serif" font-weight="bold" font-size="9.00" fill="#000000">STYLES</text>
</g>
<g id="clust4" class="cluster">
<title>cluster_src</title>
<path fill="#ffffff" stroke="#000000" stroke-width="2" d="M20,-41C20,-41 114,-41 114,-41 120,-41 126,-47 126,-53 126,-53 126,-205 126,-205 126,-211 120,-217 114,-217 114,-217 20,-217 20,-217 14,-217 8,-211 8,-205 8,-205 8,-53 8,-53 8,-47 14,-41 20,-41"/>
<text text-anchor="middle" x="67" y="-205.8" font-family="Helvetica,sans-Serif" font-weight="bold" font-size="9.00" fill="#000000">src</text>
</g>
<g id="clust5" class="cluster">
<title>cluster_src/components</title>
<path fill="#ffffff" stroke="#000000" stroke-width="2" d="M28,-75C28,-75 106,-75 106,-75 112,-75 118,-81 118,-87 118,-87 118,-180 118,-180 118,-186 112,-192 106,-192 106,-192 28,-192 28,-192 22,-192 16,-186 16,-180 16,-180 16,-87 16,-87 16,-81 22,-75 28,-75"/>
<text text-anchor="middle" x="67" y="-180.8" font-family="Helvetica,sans-Serif" font-weight="bold" font-size="9.00" fill="#000000">components</text>
</g>
<g id="clust6" class="cluster">
<title>cluster_src/components/views</title>
<path fill="#ffffff" stroke="#000000" stroke-width="2" d="M36,-83C36,-83 98,-83 98,-83 104,-83 110,-89 110,-95 110,-95 110,-155 110,-155 110,-161 104,-167 98,-167 98,-167 36,-167 36,-167 30,-167 24,-161 24,-155 24,-155 24,-95 24,-95 24,-89 30,-83 36,-83"/>
<text text-anchor="middle" x="67" y="-155.8" font-family="Helvetica,sans-Serif" font-weight="bold" font-size="9.00" fill="#000000">views</text>
</g>
<g id="clust7" class="cluster">
<title>cluster_src/components/views/home</title>
<path fill="#ffffff" stroke="#000000" stroke-width="2" d="M44,-91C44,-91 90,-91 90,-91 96,-91 102,-97 102,-103 102,-103 102,-130 102,-130 102,-136 96,-142 90,-142 90,-142 44,-142 44,-142 38,-142 32,-136 32,-130 32,-130 32,-103 32,-103 32,-97 38,-91 44,-91"/>
<text text-anchor="middle" x="67" y="-130.8" font-family="Helvetica,sans-Serif" font-weight="bold" font-size="9.00" fill="#000000">home</text>
</g>
<!-- COMPONENTS/views/home -->
<g id="node1" class="node">
<title>COMPONENTS/views/home</title>
<path fill="#ffffcc" stroke="#ff0000" d="M198.3333,-100.5C198.3333,-100.5 155.6667,-100.5 155.6667,-100.5 152.8333,-100.5 150,-97.6667 150,-94.8333 150,-94.8333 150,-89.1667 150,-89.1667 150,-86.3333 152.8333,-83.5 155.6667,-83.5 155.6667,-83.5 198.3333,-83.5 198.3333,-83.5 201.1667,-83.5 204,-86.3333 204,-89.1667 204,-89.1667 204,-94.8333 204,-94.8333 204,-97.6667 201.1667,-100.5 198.3333,-100.5"/>
<text text-anchor="middle" x="177" y="-89.3" font-family="Helvetica,sans-Serif" font-size="9.00" fill="#ff0000">home</text>
</g>
<!-- STYLES/main.scss -->
<g id="node2" class="node">
<title>STYLES/main.scss</title>
<path fill="#ffffcc" stroke="#ff0000" d="M199.3411,-33.5C199.3411,-33.5 154.6589,-33.5 154.6589,-33.5 151.8255,-33.5 148.9922,-30.6667 148.9922,-27.8333 148.9922,-27.8333 148.9922,-22.1667 148.9922,-22.1667 148.9922,-19.3333 151.8255,-16.5 154.6589,-16.5 154.6589,-16.5 199.3411,-16.5 199.3411,-16.5 202.1745,-16.5 205.0078,-19.3333 205.0078,-22.1667 205.0078,-22.1667 205.0078,-27.8333 205.0078,-27.8333 205.0078,-30.6667 202.1745,-33.5 199.3411,-33.5"/>
<text text-anchor="middle" x="177" y="-22.3" font-family="Helvetica,sans-Serif" font-size="9.00" fill="#ff0000">main.scss</text>
</g>
<!-- src/components/views/home/index.jsx -->
<g id="node3" class="node">
<title>src/components/views/home/index.jsx</title>
<g id="a_node3"><a xlink:href="src/components/views/home/index.jsx" xlink:title="index.jsx">
<path fill="#ffff77" stroke="#000000" d="M88.3333,-116.5C88.3333,-116.5 45.6667,-116.5 45.6667,-116.5 42.8333,-116.5 40,-113.6667 40,-110.8333 40,-110.8333 40,-105.1667 40,-105.1667 40,-102.3333 42.8333,-99.5 45.6667,-99.5 45.6667,-99.5 88.3333,-99.5 88.3333,-99.5 91.1667,-99.5 94,-102.3333 94,-105.1667 94,-105.1667 94,-110.8333 94,-110.8333 94,-113.6667 91.1667,-116.5 88.3333,-116.5"/>
<text text-anchor="middle" x="67" y="-105.3" font-family="Helvetica,sans-Serif" font-size="9.00" fill="#000000">index.jsx</text>
</a>
</g>
</g>
<!-- src/index.js -->
<g id="node4" class="node">
<title>src/index.js</title>
<g id="a_node4"><a xlink:href="src/index.js" xlink:title="index.js">
<path fill="#ffffcc" stroke="#000000" d="M88.3333,-66.5C88.3333,-66.5 45.6667,-66.5 45.6667,-66.5 42.8333,-66.5 40,-63.6667 40,-60.8333 40,-60.8333 40,-55.1667 40,-55.1667 40,-52.3333 42.8333,-49.5 45.6667,-49.5 45.6667,-49.5 88.3333,-49.5 88.3333,-49.5 91.1667,-49.5 94,-52.3333 94,-55.1667 94,-55.1667 94,-60.8333 94,-60.8333 94,-63.6667 91.1667,-66.5 88.3333,-66.5"/>
<text text-anchor="middle" x="67" y="-55.3" font-family="Helvetica,sans-Serif" font-size="9.00" fill="#000000">index.js</text>
</a>
</g>
</g>
<!-- src/index.js&#45;&gt;COMPONENTS/views/home -->
<g id="edge1" class="edge">
<title>src/index.js&#45;&gt;COMPONENTS/views/home</title>
<path fill="none" stroke="#000000" stroke-width="2" stroke-opacity="0.466667" d="M94.191,-66.4045C107.9412,-70.6545 124.8382,-75.8773 139.7753,-80.4942"/>
<polygon fill="#000000" fill-opacity="0.466667" stroke="#000000" stroke-width="2" stroke-opacity="0.466667" points="139.1529,-83.9651 149.7406,-83.5744 141.2201,-77.2773 139.1529,-83.9651"/>
</g>
<!-- src/index.js&#45;&gt;STYLES/main.scss -->
<g id="edge2" class="edge">
<title>src/index.js&#45;&gt;STYLES/main.scss</title>
<path fill="none" stroke="#000000" stroke-width="2" stroke-opacity="0.466667" d="M94.191,-49.8427C107.7344,-45.7797 124.3308,-40.8008 139.1002,-36.3699"/>
<polygon fill="#000000" fill-opacity="0.466667" stroke="#000000" stroke-width="2" stroke-opacity="0.466667" points="140.4008,-39.6339 148.9733,-33.408 138.3893,-32.9292 140.4008,-39.6339"/>
</g>
</g>
</svg>
